<svg width="1366" height="768" viewBox="0 0 1366 768" fill="none" xmlns="http://www.w3.org/2000/svg">
<path d="M464 557C525.833 573.333 686.4 596.2 834 557H464Z" fill="url(#paint0_linear)"/>
<path d="M1024.9 415.5L1016 431L879.5 556.5H419.5L270.4 409.9L268.4 407.5L149.4 270.6C39.9 273.9 60.6 158.7 60.6 158.7L79.8 191C79.8 191 108.9 241.8 133.5 229.4C162.1 215.1 126.4 164.2 126.4 164.2L108 139.7C108 139.7 217.3 156 170.8 256L297.7 388.1C321 290.5 367 205 477 144.7C553.379 102.831 713 95.5761 829 144.7C952.5 197 987.8 267 1012.3 378.5L1170.3 243.6C1157.2 137.4 1248.9 154.7 1248.9 154.7L1218 187.6C1218 187.6 1188.6 219.8 1209 237.4C1220.6 247.1 1253 230.9 1292.7 191.5C1292.7 282.1 1199.8 271.1 1199.8 271.1L1024.9 415.5Z" fill="url(#paint1_diamond)" stroke="#00ABE9" stroke-width="5" stroke-miterlimit="10"/>
<path d="M536.4 461.3C571.36 461.3 599.7 432.96 599.7 398C599.7 363.04 571.36 334.7 536.4 334.7C501.44 334.7 473.1 363.04 473.1 398C473.1 432.96 501.44 461.3 536.4 461.3Z" stroke="#00ABE9" stroke-width="5" stroke-miterlimit="10"/>
<path d="M536.5 444.2C562.016 444.2 582.7 423.516 582.7 398C582.7 372.484 562.016 351.8 536.5 351.8C510.984 351.8 490.3 372.484 490.3 398C490.3 423.516 510.984 444.2 536.5 444.2Z" fill="#00ABE9"/>
<path d="M758 444.2C783.516 444.2 804.2 423.516 804.2 398C804.2 372.484 783.516 351.8 758 351.8C732.484 351.8 711.8 372.484 711.8 398C711.8 423.516 732.484 444.2 758 444.2Z" fill="#00ABE9"/>
<path d="M758 461.3C792.96 461.3 821.3 432.96 821.3 398C821.3 363.04 792.96 334.7 758 334.7C723.04 334.7 694.7 363.04 694.7 398C694.7 432.96 723.04 461.3 758 461.3Z" stroke="#00ABE9" stroke-width="5" stroke-miterlimit="10"/>
<path d="M278.5 558.5C266.9 524.5 293 469.667 307.5 446.5L419.5 556C378.167 570.167 290.1 592.5 278.5 558.5Z" fill="#00ABE9" stroke="#00ABE9" stroke-width="5"/>
<path d="M398.634 538.471C317.983 530.938 285.94 554.165 280 566.72C301.588 592.094 382.162 571.551 419.5 558.5L398.634 538.471Z" fill="#008EC1"/>
<path d="M1023.72 564.398C1036.31 530.755 1011.84 475.176 998.029 451.592L882.851 557.744C923.749 573.123 1011.12 598.042 1023.72 564.398Z" fill="#00ABE9" stroke="#00ABE9" stroke-width="5"/>
<path d="M904.225 540.838C985.062 535.685 1016.41 559.846 1021.97 572.57C999.647 597.298 919.714 574.388 882.777 560.243L904.225 540.838Z" fill="#008EC1"/>
<path d="M356.5 676.5C315.3 648.5 326 606.833 336.5 589.5C336.5 601.5 340.833 613.833 343 618.5C345 614.1 351.167 607.333 354 604.5C369.556 613.7 380.148 633.333 383.5 642C399.5 618.4 383.5 587.167 373.5 574.5C390.3 578.1 403.167 591.667 407.5 598C417.9 610.8 414.5 646 411.5 662C409.1 683.6 414.167 697 417 701C369 696.6 355 650.167 354 627.5C347.2 645.5 352.833 667.667 356.5 676.5Z" fill="url(#paint2_radial)"/>
<path d="M356.5 676.5C315.3 648.5 326 606.833 336.5 589.5C336.5 601.5 340.833 613.833 343 618.5C345 614.1 351.167 607.333 354 604.5C369.556 613.7 380.148 633.333 383.5 642C399.5 618.4 383.5 587.167 373.5 574.5C390.3 578.1 403.167 591.667 407.5 598C417.9 610.8 414.5 646 411.5 662C409.1 683.6 414.167 697 417 701C369 696.6 355 650.167 354 627.5C347.2 645.5 352.833 667.667 356.5 676.5Z" fill="url(#paint3_radial)"/>
<path d="M938.615 682.475C981.114 656.488 972.43 614.355 962.775 596.537C962.198 608.523 957.277 620.634 954.888 625.191C953.102 620.7 947.268 613.644 944.574 610.678C928.594 619.119 917.07 638.221 913.305 646.716C898.458 622.374 915.942 591.946 926.539 579.775C909.586 582.563 896.082 595.495 891.449 601.613C880.445 613.898 882.149 649.221 884.376 665.346C885.734 687.037 880.029 700.178 877.007 704.037C925.163 701.95 941.379 656.244 943.468 633.651C949.395 651.958 942.702 673.828 938.615 682.475Z" fill="url(#paint4_radial)"/>
<path d="M938.615 682.475C981.114 656.488 972.43 614.355 962.775 596.537C962.198 608.523 957.277 620.634 954.888 625.191C953.102 620.7 947.268 613.644 944.574 610.678C928.594 619.119 917.07 638.221 913.305 646.716C898.458 622.374 915.942 591.946 926.539 579.775C909.586 582.563 896.082 595.495 891.449 601.613C880.445 613.898 882.149 649.221 884.376 665.346C885.734 687.037 880.029 700.178 877.007 704.037C925.163 701.95 941.379 656.244 943.468 633.651C949.395 651.958 942.702 673.828 938.615 682.475Z" fill="url(#paint5_radial)"/>
<path d="M303.573 629.026C297.736 633.557 295.69 637.984 295.397 639.631C287.875 621.092 297.841 606.291 303.764 601.208C305.26 607.227 303.023 614.495 301.718 617.377C311.308 615.726 315.071 604.373 315.754 598.903C318.912 603.9 318.699 610.29 318.197 612.861C317.578 618.462 308.19 625.971 303.573 629.026Z" fill="url(#paint6_radial)"/>
<path d="M303.573 629.026C297.736 633.557 295.69 637.984 295.397 639.631C287.875 621.092 297.841 606.291 303.764 601.208C305.26 607.227 303.023 614.495 301.718 617.377C311.308 615.726 315.071 604.373 315.754 598.903C318.912 603.9 318.699 610.29 318.197 612.861C317.578 618.462 308.19 625.971 303.573 629.026Z" fill="url(#paint7_radial)"/>
<path d="M993.764 637.6C999.376 642.407 1001.21 646.927 1001.42 648.587C1009.82 630.431 1000.58 615.168 994.91 609.806C993.126 615.745 995.011 623.113 996.177 626.054C986.677 623.944 983.464 612.423 983.046 606.926C979.651 611.766 979.556 618.159 979.934 620.751C980.283 626.375 989.299 634.327 993.764 637.6Z" fill="url(#paint8_radial)"/>
<path d="M993.764 637.6C999.376 642.407 1001.21 646.927 1001.42 648.587C1009.82 630.431 1000.58 615.168 994.91 609.806C993.126 615.745 995.011 623.113 996.177 626.054C986.677 623.944 983.464 612.423 983.046 606.926C979.651 611.766 979.556 618.159 979.934 620.751C980.283 626.375 989.299 634.327 993.764 637.6Z" fill="url(#paint9_radial)"/>
<path d="M436.437 600.136C443.611 601.905 447.279 605.119 448.217 606.505C447.558 586.509 432.438 577.033 424.961 574.795C426.039 580.902 431.036 586.635 433.4 588.738C423.966 591.125 415.915 582.28 413.069 577.559C412.213 583.408 415.004 589.161 416.507 591.306C419.348 596.172 430.978 599.22 436.437 600.136Z" fill="url(#paint10_radial)"/>
<path d="M436.437 600.136C443.611 601.905 447.279 605.119 448.217 606.505C447.558 586.509 432.438 577.033 424.961 574.795C426.039 580.902 431.036 586.635 433.4 588.738C423.966 591.125 415.915 582.28 413.069 577.559C412.213 583.408 415.004 589.161 416.507 591.306C419.348 596.172 430.978 599.22 436.437 600.136Z" fill="url(#paint11_radial)"/>
<path d="M862.442 602.355C855.192 603.776 851.373 606.811 850.37 608.15C851.99 588.209 867.547 579.471 875.124 577.595C873.753 583.643 868.486 589.129 866.024 591.116C875.332 593.954 883.799 585.506 886.869 580.927C887.443 586.811 884.378 592.423 882.774 594.494C879.702 599.217 867.94 601.702 862.442 602.355Z" fill="url(#paint12_radial)"/>
<path d="M862.442 602.355C855.192 603.776 851.373 606.811 850.37 608.15C851.99 588.209 867.547 579.471 875.124 577.595C873.753 583.643 868.486 589.129 866.024 591.116C875.332 593.954 883.799 585.506 886.869 580.927C887.443 586.811 884.378 592.423 882.774 594.494C879.702 599.217 867.94 601.702 862.442 602.355Z" fill="url(#paint13_radial)"/>
<path d="M582.3 480.5H725.4C725.4 480.5 711.7 530.5 653.8 530.5C595.9 530.5 582.3 480.5 582.3 480.5Z" fill="#00ABE9" stroke="#00ABE9" stroke-width="5" stroke-miterlimit="10"/>
<path d="M594.887 220L622.943 171.404L679.057 171.404L707.113 220L679.057 268.595L622.943 268.595L594.887 220Z" fill="#96E3FF" stroke="#00ABE9" stroke-width="5"/>
<line x1="663.129" y1="240.69" x2="679.129" y2="266.69" stroke="#00ABE9" stroke-width="5"/>
<line x1="622.151" y1="170.725" x2="638.151" y2="197.725" stroke="#00ABE9" stroke-width="5"/>
<line x1="640.129" y1="243.31" x2="624.129" y2="269.31" stroke="#00ABE9" stroke-width="5"/>
<line x1="679.129" y1="171.31" x2="663.129" y2="197.31" stroke="#00ABE9" stroke-width="5"/>
<line x1="626" y1="219.5" x2="595" y2="219.5" stroke="#00ABE9" stroke-width="5"/>
<line x1="707" y1="219.5" x2="676" y2="219.5" stroke="#00ABE9" stroke-width="5"/>
<path d="M688.193 198L651 261.078L613.807 198L688.193 198Z" fill="white" stroke="#00ABE9" stroke-width="5"/>
<path d="M669.1 209L651 239.144L632.9 209L669.1 209Z" stroke="#00ABE9" stroke-width="5"/>
<line x1="612.464" y1="198.114" x2="633.464" y2="209.114" stroke="#00ABE9" stroke-width="2"/>
<line x1="670.486" y1="208.142" x2="685.485" y2="199.142" stroke="#00ABE9" stroke-width="2"/>
<line x1="651" y1="259" x2="651" y2="242" stroke="#00ABE9" stroke-width="2"/>
<defs>
<linearGradient id="paint0_linear" x1="649" y1="557" x2="649" y2="578.644" gradientUnits="userSpaceOnUse">
<stop stop-color="#F1F1F1"/>
<stop offset="1" stop-color="#C0C0C0"/>
</linearGradient>
<radialGradient id="paint1_diamond" cx="0" cy="0" r="1" gradientUnits="userSpaceOnUse" gradientTransform="translate(652.5 111) rotate(90) scale(656.5 1816.01)">
<stop stop-color="white"/>
<stop offset="0.557172" stop-color="#F0F0F0"/>
</radialGradient>
<radialGradient id="paint2_radial" cx="0" cy="0" r="1" gradientUnits="userSpaceOnUse" gradientTransform="translate(363 609) rotate(59.5889) scale(106.677 223.848)">
<stop stop-color="#00ABE9"/>
<stop offset="1" stop-color="#008EC1" stop-opacity="0"/>
</radialGradient>
<radialGradient id="paint3_radial" cx="0" cy="0" r="1" gradientUnits="userSpaceOnUse" gradientTransform="translate(363 609) rotate(59.5889) scale(106.677 223.848)">
<stop stop-color="#00ABE9"/>
<stop offset="1" stop-color="#008EC1" stop-opacity="0"/>
</radialGradient>
<radialGradient id="paint4_radial" cx="0" cy="0" r="1" gradientUnits="userSpaceOnUse" gradientTransform="translate(935.368 614.74) rotate(123.167) scale(106.677 223.848)">
<stop stop-color="#00ABE9"/>
<stop offset="1" stop-color="#008EC1" stop-opacity="0"/>
</radialGradient>
<radialGradient id="paint5_radial" cx="0" cy="0" r="1" gradientUnits="userSpaceOnUse" gradientTransform="translate(935.368 614.74) rotate(123.167) scale(106.677 223.848)">
<stop stop-color="#00ABE9"/>
<stop offset="1" stop-color="#008EC1" stop-opacity="0"/>
</radialGradient>
<radialGradient id="paint6_radial" cx="0" cy="0" r="1" gradientUnits="userSpaceOnUse" gradientTransform="translate(304.83 604.495) rotate(105.029) scale(36.3808 76.8088)">
<stop stop-color="#00ABE9"/>
<stop offset="1" stop-color="#008EC1" stop-opacity="0"/>
</radialGradient>
<radialGradient id="paint7_radial" cx="0" cy="0" r="1" gradientUnits="userSpaceOnUse" gradientTransform="translate(304.83 604.495) rotate(105.029) scale(36.3808 76.8088)">
<stop stop-color="#00ABE9"/>
<stop offset="1" stop-color="#008EC1" stop-opacity="0"/>
</radialGradient>
<radialGradient id="paint8_radial" cx="0" cy="0" r="1" gradientUnits="userSpaceOnUse" gradientTransform="translate(993.687 613.038) rotate(77.7274) scale(36.3808 76.8088)">
<stop stop-color="#00ABE9"/>
<stop offset="1" stop-color="#008EC1" stop-opacity="0"/>
</radialGradient>
<radialGradient id="paint9_radial" cx="0" cy="0" r="1" gradientUnits="userSpaceOnUse" gradientTransform="translate(993.687 613.038) rotate(77.7274) scale(36.3808 76.8088)">
<stop stop-color="#00ABE9"/>
<stop offset="1" stop-color="#008EC1" stop-opacity="0"/>
</radialGradient>
<radialGradient id="paint10_radial" cx="0" cy="0" r="1" gradientUnits="userSpaceOnUse" gradientTransform="translate(425.323 578.231) rotate(51.0018) scale(36.3808 76.8088)">
<stop stop-color="#00ABE9"/>
<stop offset="1" stop-color="#008EC1" stop-opacity="0"/>
</radialGradient>
<radialGradient id="paint11_radial" cx="0" cy="0" r="1" gradientUnits="userSpaceOnUse" gradientTransform="translate(425.323 578.231) rotate(51.0018) scale(36.3808 76.8088)">
<stop stop-color="#00ABE9"/>
<stop offset="1" stop-color="#008EC1" stop-opacity="0"/>
</radialGradient>
<radialGradient id="paint12_radial" cx="0" cy="0" r="1" gradientUnits="userSpaceOnUse" gradientTransform="translate(874.597 581.01) rotate(131.754) scale(36.3808 76.8088)">
<stop stop-color="#00ABE9"/>
<stop offset="1" stop-color="#008EC1" stop-opacity="0"/>
</radialGradient>
<radialGradient id="paint13_radial" cx="0" cy="0" r="1" gradientUnits="userSpaceOnUse" gradientTransform="translate(874.597 581.01) rotate(131.754) scale(36.3808 76.8088)">
<stop stop-color="#00ABE9"/>
<stop offset="1" stop-color="#008EC1" stop-opacity="0"/>
</radialGradient>
</defs>
</svg>
